<?xml version="1.0" encoding="iso-8859-1"?>
<!-- Generator: Adobe Illustrator 19.0.0, SVG Export Plug-In . SVG Version: 6.00 Build 0)  -->
<svg version="1.1" id="Capa_1" xmlns="http://www.w3.org/2000/svg" xmlns:xlink="http://www.w3.org/1999/xlink" x="0px" y="0px"
	 viewBox="0 0 512 512" style="enable-background:new 0 0 512 512;" xml:space="preserve">
<g>
	<g>
		<circle style="fill:#A4C2F7;" cx="256" cy="61.793" r="52.966"/>
		<circle style="fill:#A4C2F7;" cx="61.793" cy="388.414" r="52.966"/>
		<circle style="fill:#A4C2F7;" cx="450.207" cy="388.414" r="52.966"/>
	</g>
	<g>
		<ellipse style="fill:#E3E7F2;" cx="242.759" cy="61.793" rx="39.724" ry="52.966"/>
		<ellipse style="fill:#E3E7F2;" cx="48.552" cy="388.414" rx="39.724" ry="52.966"/>
	</g>
	<g>
		<path style="fill:#FFFFFF;" d="M61.793,441.379c2.533-0.02,5.062-0.221,7.567-0.601c-19.244-3.681-34.05-25.687-34.05-52.364
			c0-26.677,14.806-48.683,34.05-52.364c-19.622-2.844-39.188,5.515-50.698,21.658c-11.51,16.144-13.035,37.366-3.95,54.989
			S41.966,441.389,61.793,441.379L61.793,441.379z"/>
		<path style="fill:#FFFFFF;" d="M256,114.759c2.533-0.02,5.062-0.221,7.567-0.601c-19.244-3.681-34.05-25.687-34.05-52.364
			s14.806-48.683,34.05-52.364c-19.622-2.844-39.188,5.515-50.698,21.658c-11.51,16.144-13.035,37.366-3.95,54.989
			C218.003,103.699,236.173,114.769,256,114.759z"/>
		<path style="fill:#FFFFFF;" d="M450.207,441.379c2.533-0.02,5.062-0.221,7.567-0.601c-19.244-3.681-34.05-25.687-34.05-52.364
			c0-26.677,14.806-48.683,34.05-52.364c-19.622-2.844-39.188,5.515-50.698,21.658c-11.51,16.144-13.035,37.366-3.95,54.989
			C412.21,430.32,430.38,441.389,450.207,441.379z"/>
	</g>
	<ellipse style="fill:#E3E7F2;" cx="436.966" cy="388.414" rx="39.724" ry="52.966"/>
	<g>
		<path style="fill:#428DFF;" d="M256,123.586c-34.127,0-61.793-27.666-61.793-61.793S221.873,0,256,0s61.793,27.666,61.793,61.793
			C317.753,95.904,290.111,123.546,256,123.586L256,123.586z M256,17.655c-24.377,0-44.138,19.761-44.138,44.138
			s19.761,44.138,44.138,44.138s44.138-19.761,44.138-44.138C300.109,37.428,280.365,17.684,256,17.655L256,17.655z"/>
		<path style="fill:#428DFF;" d="M61.793,450.207C27.666,450.207,0,422.541,0,388.414s27.666-61.793,61.793-61.793
			s61.793,27.666,61.793,61.793C123.547,422.525,95.904,450.167,61.793,450.207L61.793,450.207z M61.793,344.276
			c-24.377,0-44.138,19.761-44.138,44.138s19.761,44.138,44.138,44.138s44.138-19.761,44.138-44.138
			C105.903,364.049,86.158,344.304,61.793,344.276L61.793,344.276z"/>
		<path style="fill:#428DFF;" d="M450.207,450.207c-34.127,0-61.793-27.666-61.793-61.793s27.666-61.793,61.793-61.793
			S512,354.286,512,388.414C511.96,422.525,484.318,450.167,450.207,450.207L450.207,450.207z M450.207,344.276
			c-24.377,0-44.138,19.761-44.138,44.138s19.761,44.138,44.138,44.138c24.377,0,44.138-19.761,44.138-44.138
			C494.316,364.049,474.572,344.304,450.207,344.276L450.207,344.276z"/>
		<path style="fill:#428DFF;" d="M469.298,347.879c-2.741,0.002-5.327-1.269-7-3.44c-1.672-2.171-2.241-4.997-1.539-7.646
			c24.03-90.419-14.129-185.891-93.862-234.836c-4.135-2.564-5.416-7.99-2.865-12.133c2.551-4.143,7.973-5.441,12.124-2.902
			c86.36,53.03,127.691,156.443,101.672,254.388C476.802,345.181,473.301,347.877,469.298,347.879L469.298,347.879z"/>
		<path style="fill:#428DFF;" d="M256,512c-64.517-0.08-126.033-27.256-169.539-74.897c-2.125-2.33-2.846-5.617-1.89-8.622
			c0.955-3.005,3.441-5.273,6.522-5.948c3.08-0.675,6.287,0.344,8.412,2.674c60.084,65.919,155.022,87.144,237.457,53.086
			c2.919-1.235,6.276-0.809,8.795,1.115c2.519,1.924,3.813,5.051,3.39,8.192c-0.423,3.141-2.498,5.814-5.436,7.004
			C315.908,506.131,286.098,512.044,256,512L256,512z"/>
		<path style="fill:#428DFF;" d="M35.94,275.56c-0.207,0-0.418-0.009-0.629-0.026c-2.335-0.163-4.51-1.247-6.046-3.015
			c-1.535-1.767-2.305-4.073-2.14-6.408c6.779-99.5,77.295-183.115,174.224-206.586c4.733-1.145,9.499,1.757,10.654,6.487
			c1.155,4.73-1.737,9.503-6.465,10.668C116.076,98.344,50.992,175.518,44.737,267.353C44.413,271.974,40.572,275.557,35.94,275.56z
			"/>
	</g>
</g>
<g>
</g>
<g>
</g>
<g>
</g>
<g>
</g>
<g>
</g>
<g>
</g>
<g>
</g>
<g>
</g>
<g>
</g>
<g>
</g>
<g>
</g>
<g>
</g>
<g>
</g>
<g>
</g>
<g>
</g>
</svg>
